Coordinates
version=1
nRows=30
nColumns=30
inDegrees=yes

Units are S.I. units (second, meters, Newtons, ...)
Angles are in degrees.

endheader
time	floatyaw	floatroll	floatpitch	floatx	floaty	floatz	pro_sup_l	deviation_l	flexion_l	cmc_flexion_l	cmc_abduction_l	mp_flexion_l	ip_flexion_l	2mcp_flexion_l	2mcp_abduction_l	2pm_flexion_l	2md_flexion_l	3mcp_flexion_l	3mcp_abduction_l	3pm_flexion_l	3md_flexion_l	4mcp_flexion_l	4mcp_abduction_l	4pm_flexion_l	4md_flexion_l	5mcp_flexion_l	5mcp_abduction_l	5pm_flexion_l	5md_flexion_l
-0.995000	0.705439	-1.708008	98.521615	-0.105251	-0.193269	-0.025083	88.509984	0.406317	-1.372921	17.936358	2.806269	-21.880432	-35.111563	36.433518	8.496435	46.366712	32.611311	22.549581	4.731648	45.856594	31.069105	12.939789	-4.581118	59.880990	40.833448	9.781184	-9.014321	58.521327	40.839992
-0.985000	0.705439	-1.708008	98.521615	-0.105238	-0.193268	-0.025073	88.521618	0.408773	-1.379233	17.927034	2.788177	-21.889895	-35.124224	36.435098	8.498583	46.385670	32.618955	22.551235	4.733700	45.877757	31.074613	12.964923	-4.586151	59.908236	40.841584	9.806688	-9.006845	58.528078	40.832274
-0.975000	0.705439	-1.708008	98.521615	-0.105226	-0.193264	-0.025063	88.530422	0.411195	-1.382914	17.914737	2.771342	-21.901285	-35.137208	36.440317	8.497126	46.400615	32.625162	22.550536	4.735975	45.893102	31.079388	12.983065	-4.590480	59.934026	40.849666	9.831942	-8.997992	58.531539	40.824378
-0.965000	0.705439	-1.708008	98.521615	-0.105215	-0.193261	-0.025056	88.537787	0.414385	-1.385921	17.901998	2.755247	-21.911800	-35.148752	36.448835	8.493644	46.413354	32.631007	22.550736	4.737530	45.905563	31.085349	12.994859	-4.594117	59.957795	40.856911	9.856847	-8.988413	58.533553	40.817012
-0.955000	0.705439	-1.708008	98.521615	-0.105203	-0.193261	-0.025052	88.545488	0.418450	-1.390410	17.891771	2.738617	-21.918638	-35.157260	36.458888	8.490870	46.426200	32.637630	22.555334	4.737571	45.917929	31.093243	13.004366	-4.597354	59.978775	40.862073	9.881194	-8.978015	58.536253	40.811037
-0.945000	0.705439	-1.708008	98.521615	-0.105192	-0.193263	-0.025051	88.554531	0.422717	-1.397326	17.885812	2.720928	-21.920302	-35.161801	36.467727	8.490975	46.441372	32.645886	22.566030	4.735659	45.931725	31.102510	13.015931	-4.600342	59.996118	40.864102	9.904486	-8.966604	58.540957	40.806869
-0.935000	0.705439	-1.708008	98.521615	-0.105181	-0.193267	-0.025051	88.564688	0.426217	-1.405713	17.883710	2.703066	-21.917165	-35.162292	36.472683	8.494261	46.460257	32.655976	22.581445	4.731859	45.946846	31.111829	13.031247	-4.602899	60.009316	40.862814	9.926074	-8.954610	58.547639	40.804086
-0.925000	0.705439	-1.708008	98.521615	-0.105171	-0.193270	-0.025049	88.574930	0.428361	-1.413210	17.883117	2.686927	-21.910949	-35.159244	36.472264	8.499111	46.482750	32.667294	22.597581	4.726781	45.962096	31.119988	13.048595	-4.604666	60.018359	40.858996	9.945687	-8.943248	58.555111	40.801517
-0.915000	0.705439	-1.708008	98.521615	-0.105162	-0.193269	-0.025046	88.584357	0.429444	-1.417427	17.880926	2.674571	-21.903647	-35.153364	36.466820	8.503082	46.507138	32.678661	22.609880	4.721400	45.976365	31.126585	13.064502	-4.605406	60.023481	40.853903	9.963952	-8.933927	58.561752	40.797791
-0.905000	0.705439	-1.708008	98.521615	-0.105155	-0.193263	-0.025041	88.592892	0.430706	-1.417325	17.874712	2.667452	-21.896812	-35.145410	36.458576	8.504252	46.530795	32.688903	22.615587	4.716653	45.989610	31.132197	13.076246	-4.605167	60.024943	40.848643	9.982269	-8.927401	58.566456	40.792087
-0.895000	0.705439	-1.708008	98.521615	-0.105150	-0.193253	-0.025036	88.601267	0.433860	-1.413785	17.863830	2.665833	-21.891632	-35.136441	36.450962	8.501991	46.551387	32.697447	22.615003	4.713022	46.002864	31.137933	13.083395	-4.604209	60.023327	40.843936	10.001802	-8.923225	58.569403	40.784696
-0.885000	0.705439	-1.708008	98.521615	-0.105146	-0.193242	-0.025034	88.610453	0.440264	-1.409139	17.849795	2.668512	-21.889375	-35.128132	36.447333	8.496932	46.567962	32.704588	22.611068	4.710343	46.017256	31.144663	13.087669	-4.602916	60.020234	40.840350	10.022070	-8.919753	58.572188	40.777067
-0.875000	0.705439	-1.708008	98.521615	-0.105143	-0.193233	-0.025034	88.621087	0.450250	-1.406053	17.835816	2.673053	-21.891480	-35.122737	36.449622	8.490381	46.581372	32.711261	22.607783	4.707974	46.032849	31.152403	13.091640	-4.601800	60.018622	40.838585	10.040338	-8.914572	58.577021	40.771213
-0.865000	0.705439	-1.708008	98.521615	-0.105138	-0.193228	-0.025038	88.633288	0.463087	-1.406484	17.825543	2.676539	-21.899065	-35.122511	36.457597	8.483561	46.593787	32.718442	22.608518	4.705159	46.048240	31.160161	13.097182	-4.601494	60.022015	40.839379	10.052773	-8.905311	58.585309	40.768726
-0.855000	0.705439	-1.708008	98.521615	-0.105133	-0.193228	-0.025044	88.646733	0.477571	-1.411134	17.821486	2.676526	-21.912197	-35.128865	36.469089	8.477000	46.607502	32.726472	22.614964	4.701388	46.061244	31.166320	13.104357	-4.602492	60.032640	40.843002	10.057123	-8.890704	58.596472	40.769872
-0.845000	0.705439	-1.708008	98.521615	-0.105127	-0.193231	-0.025051	88.660678	0.492640	-1.419393	17.823834	2.671743	-21.929484	-35.141631	36.480880	8.470336	46.623673	32.734725	22.626848	4.696599	46.070225	31.169406	13.111213	-4.604713	60.049712	40.848853	10.055315	-8.871573	58.607747	40.773176
-0.835000	0.705439	-1.708008	98.521615	-0.105120	-0.193236	-0.025058	88.673905	0.507502	-1.429567	17.830279	2.662377	-21.948249	-35.158811	36.489713	8.462683	46.641754	32.741882	22.642216	4.691161	46.075326	31.168970	13.114687	-4.607252	60.069343	40.855637	10.053893	-8.851015	58.615205	40.775754
-0.825000	0.705439	-1.708008	98.521615	-0.105114	-0.193239	-0.025064	88.684934	0.521410	-1.439314	17.836984	2.649933	-21.965201	-35.176948	36.493146	8.453377	46.660024	32.746689	22.658182	4.685647	46.078926	31.166128	13.112334	-4.608707	60.086469	40.862098	10.061356	-8.833229	58.615584	40.774361
-0.815000	0.705439	-1.708008	98.521615	-0.105109	-0.193239	-0.025069	88.692743	0.533620	-1.446324	17.840205	2.636652	-21.977373	-35.192117	36.490275	8.442610	46.676816	32.748720	22.671997	4.680505	46.084876	31.163333	13.104121	-4.607997	60.097528	40.867657	10.083573	-8.821199	58.608104	40.766847
-0.805000	0.705439	-1.708008	98.521615	-0.105107	-0.193233	-0.025071	88.697660	0.543811	-1.449158	17.837809	2.624483	-21.983055	-35.201231	36.482188	8.431453	46.691608	32.748643	22.682028	4.675906	46.096563	31.163213	13.093316	-4.605203	60.101961	40.872346	10.120066	-8.814490	58.595321	40.753342
-0.795000	0.705439	-1.708008	98.521615	-0.105106	-0.193223	-0.025072	88.701633	0.552569	-1.447904	17.829985	2.613978	-21.982442	-35.203168	36.471751	8.421306	46.705242	32.747810	22.688147	4.671874	46.114721	31.167026	13.085765	-4.601859	60.101684	40.876131	10.163577	-8.808796	58.582512	40.736514
-0.785000	0.705439	-1.708008	98.521615	-0.105105	-0.193209	-0.025073	88.707352	0.561342	-1.444309	17.818827	2.603903	-21.977714	-35.199204	36.462538	8.413177	46.719182	32.747505	22.691474	4.668572	46.136551	31.173818	13.087684	-4.600463	60.099380	40.878397	10.203257	-8.797897	58.575815	40.720658
-0.775000	0.705439	-1.708008	98.521615	-0.105104	-0.193194	-0.025074	88.716624	0.571683	-1.441174	17.807051	2.592118	-21.972441	-35.192545	36.457381	8.407309	46.734399	32.748348	22.693879	4.666405	46.157149	31.181017	13.102887	-4.603383	60.097209	40.878214	10.229642	-8.777050	58.579892	40.709947
-0.765000	0.705439	-1.708008	98.521615	-0.105101	-0.193181	-0.025078	88.729096	0.584199	-1.441173	17.796598	2.577184	-21.970357	-35.187078	36.457388	8.403248	46.750641	32.750140	22.697467	4.665793	46.172507	31.186099	13.130889	-4.611642	60.096586	40.875177	10.238843	-8.745761	58.595971	40.706613
-0.755000	0.705439	-1.708008	98.521615	-0.105097	-0.193171	-0.025083	88.742305	0.597985	-1.445564	17.787924	2.559299	-21.973893	-35.185847	36.461872	8.400193	46.766491	32.752129	22.704023	4.666795	46.181885	31.188051	13.167021	-4.624255	60.098461	40.869980	10.234033	-8.708246	58.621060	40.709884
-0.745000	0.705439	-1.708008	98.521615	-0.105091	-0.193164	-0.025089	88.753066	0.611017	-1.453519	17.780251	2.539775	-21.983131	-35.189927	36.469055	8.397319	46.780114	32.753446	22.714363	4.668902	46.187826	31.187613	13.204656	-4.638551	60.103203	40.864109	10.223655	-8.671389	58.648809	40.716278
-0.735000	0.705439	-1.708008	98.521615	-0.105083	-0.193160	-0.025093	88.759246	0.621382	-1.462496	17.772405	2.519775	-21.995860	-35.198279	36.477063	8.393871	46.790181	32.753476	22.727876	4.671164	46.194070	31.186382	13.238310	-4.651364	60.110068	40.858887	10.217336	-8.641466	58.671834	40.721162
-0.725000	0.705439	-1.708008	98.521615	-0.105076	-0.193155	-0.025094	88.760831	0.628570	-1.469479	17.763566	2.499587	-22.008815	-35.208613	36.484758	8.389065	46.796445	32.752040	22.742606	4.672559	46.203159	31.185739	13.265737	-4.660404	60.116892	40.854681	10.221534	-8.621468	58.684433	40.720755
-0.715000	0.705439	-1.708008	98.521615	-0.105069	-0.193148	-0.025092	88.759797	0.634000	-1.472450	17.753516	2.478873	-22.019407	-35.218677	36.492159	8.382041	46.799706	32.749355	22.755980	4.672447	46.215402	31.186347	13.288029	-4.665089	60.120627	40.850810	10.237012	-8.610203	58.684374	40.713535
-0.705000	0.705439	-1.708008	98.521615	-0.105062	-0.193137	-0.025088	88.759040	0.640424	-1.471318	17.742417	2.457282	-22.026897	-35.227150	36.500297	8.372129	46.801310	32.745844	22.765829	4.670879	46.229540	31.188345	13.308103	-4.666511	60.118579	40.846128	10.259147	-8.603298	58.673147	40.700472
